<?xml version="1.0" encoding="UTF-8"?><svg xmlns="http://www.w3.org/2000/svg" xmlns:xlink="http://www.w3.org/1999/xlink" fill-opacity="1" color-rendering="auto" color-interpolation="auto" text-rendering="auto" stroke="black" stroke-linecap="square" width="475" stroke-miterlimit="10" shape-rendering="auto" stroke-opacity="1" fill="black" stroke-dasharray="none" font-weight="normal" stroke-width="1" height="160" font-family="'Dialog'" font-style="normal" stroke-linejoin="miter" font-size="12px" stroke-dashoffset="0" image-rendering="auto">
  <!--Generated by ySVG 2.5-->
  <defs id="genericDefs"/>
  <g>
    <defs id="defs1">
      <clipPath clipPathUnits="userSpaceOnUse" id="clipPath1">
        <path d="M0 0 L475 0 L475 160 L0 160 L0 0 Z"/>
      </clipPath>
      <clipPath clipPathUnits="userSpaceOnUse" id="clipPath2">
        <path d="M121 244 L596 244 L596 404 L121 404 L121 244 Z"/>
      </clipPath>
    </defs>
    <g fill="rgb(255,204,0)" text-rendering="geometricPrecision" shape-rendering="geometricPrecision" transform="matrix(1,0,0,1,-121,-244)" stroke="rgb(255,204,0)">
      <rect x="136" width="95" height="52" y="333" clip-path="url(#clipPath2)" stroke="none"/>
    </g>
    <g text-rendering="geometricPrecision" stroke-miterlimit="1.45" shape-rendering="geometricPrecision" transform="matrix(1,0,0,1,-121,-244)" stroke-linecap="butt">
      <rect fill="none" x="136" width="95" height="52" y="333" clip-path="url(#clipPath2)"/>
      <text x="142.1592" xml:space="preserve" y="363.7139" clip-path="url(#clipPath2)" font-family="sans-serif" stroke="none">向量（Vector）</text>
    </g>
    <g fill="rgb(255,204,0)" text-rendering="geometricPrecision" shape-rendering="geometricPrecision" transform="matrix(1,0,0,1,-121,-244)" stroke="rgb(255,204,0)">
      <rect x="299" width="119" height="42" y="338" clip-path="url(#clipPath2)" stroke="none"/>
    </g>
    <g text-rendering="geometricPrecision" stroke-miterlimit="1.45" shape-rendering="geometricPrecision" transform="matrix(1,0,0,1,-121,-244)" stroke-linecap="butt">
      <rect fill="none" x="299" width="119" height="42" y="338" clip-path="url(#clipPath2)"/>
      <text x="302.8154" xml:space="preserve" y="363.7139" clip-path="url(#clipPath2)" font-family="sans-serif" stroke="none">生成器（generator）</text>
    </g>
    <g fill="rgb(255,204,0)" text-rendering="geometricPrecision" shape-rendering="geometricPrecision" transform="matrix(1,0,0,1,-121,-244)" stroke="rgb(255,204,0)">
      <rect x="497" width="83" height="59" y="329.5" clip-path="url(#clipPath2)" stroke="none"/>
    </g>
    <g text-rendering="geometricPrecision" stroke-miterlimit="1.45" shape-rendering="geometricPrecision" transform="matrix(1,0,0,1,-121,-244)" stroke-linecap="butt">
      <rect fill="none" x="497" width="83" height="59" y="329.5" clip-path="url(#clipPath2)"/>
      <text x="498.1582" xml:space="preserve" y="363.7139" clip-path="url(#clipPath2)" font-family="sans-serif" stroke="none">图像（image）</text>
    </g>
    <g fill="rgb(255,204,0)" text-rendering="geometricPrecision" shape-rendering="geometricPrecision" transform="matrix(1,0,0,1,-121,-244)" stroke="rgb(255,204,0)">
      <path d="M389 259 L474 259 L474 274 L489 274 L489 287 L389 287 Z" stroke="none" clip-path="url(#clipPath2)"/>
      <path fill="white" d="M474 259 L474 274 L489 274 Z" clip-path="url(#clipPath2)" fill-rule="evenodd" stroke="none"/>
    </g>
    <g text-rendering="geometricPrecision" stroke-miterlimit="1.45" shape-rendering="geometricPrecision" transform="matrix(1,0,0,1,-121,-244)" stroke-linecap="butt">
      <path fill="none" d="M389 259 L474 259 L474 274 L489 274 L489 287 L389 287 Z" clip-path="url(#clipPath2)"/>
      <path fill="none" d="M474 259 L474 274 L489 274 Z" clip-path="url(#clipPath2)" fill-rule="evenodd"/>
      <text x="415" xml:space="preserve" y="277.7139" clip-path="url(#clipPath2)" font-family="sans-serif" stroke="none">神经网络</text>
      <path fill="none" d="M231 359 L289 359" stroke-width="3" clip-path="url(#clipPath2)"/>
      <path d="M299 359 L284 352.75 L287.75 359 L284 365.25 Z" stroke-width="3" clip-path="url(#clipPath2)" stroke="none"/>
      <path fill="none" d="M418 359 L487 359" stroke-width="3" clip-path="url(#clipPath2)"/>
      <path d="M497 359 L482 352.75 L485.75 359 L482 365.25 Z" stroke-width="3" clip-path="url(#clipPath2)" stroke="none"/>
      <path fill="none" stroke-dasharray="12,4" d="M378.157 338 L419.7482 293.5672" stroke-width="2" clip-path="url(#clipPath2)"/>
      <path stroke-dasharray="12,4" d="M425.8986 286.9966 L412.5663 293.0085 L418.9794 294.3885 L420.7796 300.6965 Z" stroke-width="2" clip-path="url(#clipPath2)" stroke="none"/>
    </g>
  </g>
</svg>
